<?xml version="1.0" encoding="UTF-8"?>
<svg width="196px" height="14px" viewBox="0 0 196 14" version="1.1" xmlns="http://www.w3.org/2000/svg" xmlns:xlink="http://www.w3.org/1999/xlink">
    <!-- Generator: Sketch 51.3 (57544) - http://www.bohemiancoding.com/sketch -->
    <title>Distributed Applicat</title>
    <desc>Created with Sketch.</desc>
    <defs></defs>
    <g id="Page-1" stroke="none" stroke-width="1" fill="none" fill-rule="evenodd">
        <g id="website-layout-02" transform="translate(-548.000000, -313.000000)" fill="#6767A0">
            <g id="Hero" transform="translate(-6.500000, 69.890625)">
                <g id="headline" transform="translate(134.000000, 81.000000)">
                    <g id="logos">
                        <g id="1" transform="translate(421.000000, 11.121094)">
                            <path d="M3.09361821,160.000148 C3.52706936,160.000148 3.91802517,159.919407 4.26648603,159.757925 C4.61494689,159.596443 4.91241349,159.377593 5.15888545,159.101374 C5.40535781,158.825155 5.59446162,158.506441 5.72619652,158.145232 C5.85793141,157.784023 5.92379925,157.399441 5.92379925,156.991487 C5.92379925,156.583533 5.85793141,156.196826 5.72619652,155.831368 C5.59446123,155.465909 5.40535742,155.147195 5.15888545,154.875226 C4.9124131,154.603256 4.6149465,154.386531 4.26648603,154.225049 C3.91802517,154.063567 3.52706936,153.982826 3.09361821,153.982826 L1.71677339,153.982826 L1.71677339,160.000148 L3.09361821,160.000148 Z M3.06812109,152.52949 C3.71404816,152.52949 4.30898098,152.642102 4.85291994,152.867327 C5.3968585,153.092552 5.86218067,153.402767 6.24888761,153.797972 C6.63559377,154.193177 6.93731002,154.662749 7.1540356,155.206688 C7.37076117,155.750627 7.47912396,156.34556 7.47912396,156.991487 C7.47912396,157.637414 7.37076117,158.232347 7.1540356,158.776286 C6.93731002,159.320225 6.63559377,159.789797 6.24888761,160.185002 C5.86218145,160.580208 5.39685889,160.890423 4.85291994,161.115647 C4.30898137,161.340872 3.71404855,161.453484 3.06812109,161.453484 L0.186945799,161.453484 L0.186945799,152.52949 L3.06812109,152.52949 Z M8.95636372,153.460135 C8.95636372,153.179667 9.05410257,152.941693 9.24958067,152.746216 C9.44505877,152.550738 9.68303182,152.452999 9.96350021,152.452999 C10.2439686,152.452999 10.4819418,152.550738 10.6774198,152.746216 C10.8728977,152.941693 10.9706367,153.179667 10.9706367,153.460135 C10.9706367,153.740603 10.8728977,153.978577 10.6774198,154.174055 C10.4819418,154.369532 10.2439686,154.467272 9.96350021,154.467272 C9.68303182,154.467272 9.44505877,154.369532 9.24958067,154.174055 C9.05410257,153.978577 8.95636372,153.740603 8.95636372,153.460135 Z M9.19858642,155.410665 L10.728414,155.410665 L10.728414,161.453484 L9.19858642,161.453484 L9.19858642,155.410665 Z M13.2510359,159.400966 C13.3530245,159.494455 13.4656369,159.592194 13.5888729,159.694182 C13.712109,159.796171 13.8523432,159.889661 14.0095755,159.974651 C14.1668077,160.059641 14.3410381,160.129758 14.5322666,160.185002 C14.723495,160.240246 14.9338463,160.267868 15.1633204,160.267868 C15.4352899,160.267868 15.6796372,160.221123 15.8963628,160.127634 C16.1130884,160.034144 16.2214512,159.885411 16.2214512,159.681434 C16.2214512,159.579445 16.1895798,159.49658 16.125837,159.432837 C16.0620941,159.369094 15.9771038,159.315975 15.8708657,159.27348 C15.7646275,159.230985 15.6371419,159.194864 15.4884088,159.165117 C15.3396757,159.135371 15.1845681,159.09925 15.0230862,159.056754 C14.7426178,158.997261 14.4685237,158.918645 14.2008039,158.820906 C13.9330841,158.723167 13.6929862,158.599931 13.4805101,158.451198 C13.2680342,158.302464 13.0980532,158.128234 12.9705676,157.928506 C12.8430819,157.728779 12.7793391,157.488681 12.7793391,157.208213 C12.7793391,156.953241 12.8367076,156.708894 12.9514447,156.47517 C13.0661818,156.241446 13.2340377,156.03322 13.455013,155.850491 C13.675988,155.667761 13.9437078,155.523277 14.2581724,155.41704 C14.5726371,155.310801 14.9338463,155.257682 15.3418003,155.257682 C15.87724,155.257682 16.3383129,155.338424 16.7250194,155.499905 C17.111726,155.661387 17.4198161,155.827118 17.6492903,155.997099 L16.8843765,157.118973 C16.7058966,156.991487 16.4849214,156.8725 16.2214512,156.762013 C15.957981,156.651526 15.6690137,156.596282 15.3545489,156.596282 C15.0825796,156.596282 14.8361074,156.647276 14.6151322,156.749264 C14.3941572,156.851253 14.2836696,156.995737 14.2836696,157.182716 C14.2836696,157.352696 14.3941572,157.478057 14.6151322,157.558798 C14.8361072,157.639539 15.2015661,157.735153 15.7115086,157.845641 C15.9749788,157.905134 16.2320747,157.977376 16.4827967,158.062366 C16.7335183,158.147357 16.9523685,158.257844 17.1393477,158.393829 C17.3263265,158.529814 17.4771847,158.69767 17.5919217,158.897397 C17.7066588,159.097125 17.7640273,159.341472 17.7640273,159.63044 C17.7640273,159.953403 17.6917856,160.238121 17.5473018,160.484593 C17.4028179,160.731066 17.2094648,160.937167 16.9672421,161.102899 C16.7250194,161.26863 16.4466757,161.393991 16.1322112,161.478981 C15.8177468,161.563972 15.4862842,161.606467 15.1378233,161.606467 C14.8148598,161.606467 14.5152685,161.574596 14.2390496,161.510853 C13.9628307,161.44711 13.7099842,161.364244 13.4805101,161.262256 C13.2510359,161.160267 13.0449343,161.043405 12.8622048,160.91167 C12.6794754,160.779935 12.5243678,160.646075 12.3968822,160.510091 L13.2510359,159.400966 Z M18.7313246,155.410665 L19.9169409,155.410665 L19.9169409,153.613118 L21.4467685,153.613118 L21.4467685,155.410665 L23.2698131,155.410665 L23.2698131,156.78751 L21.4467685,156.78751 L21.4467685,159.222486 C21.4467685,159.409465 21.4701408,159.564572 21.5168856,159.687808 C21.5636304,159.811044 21.6231238,159.908783 21.6953655,159.981025 C21.7676072,160.053267 21.8504729,160.104261 21.9439625,160.134008 C22.0374521,160.163755 22.1309417,160.178628 22.2244309,160.178628 C22.3519165,160.178628 22.4709032,160.15738 22.5813906,160.114885 C22.6918781,160.07239 22.7896169,160.021395 22.8746076,159.961902 L23.4355444,161.211261 C23.2570645,161.330248 23.0403389,161.425862 22.7853677,161.498104 C22.5303964,161.570346 22.2669262,161.606467 21.9949567,161.606467 C21.6974903,161.606467 21.4212714,161.555473 21.1663001,161.453484 C20.9113289,161.351496 20.6903538,161.207012 20.5033748,161.020033 C20.3163959,160.833054 20.1719122,160.607829 20.0699237,160.344359 C19.9679352,160.080889 19.9169409,159.787672 19.9169409,159.464708 L19.9169409,156.78751 L18.7313246,156.78751 L18.7313246,155.410665 Z M27.9214451,155.257682 C28.0659289,155.257682 28.2274106,155.272556 28.4058905,155.302302 C28.5843703,155.332049 28.7628502,155.380919 28.9413301,155.448911 L28.4058905,156.825756 C28.3209002,156.78326 28.216787,156.749264 28.0935507,156.723767 C27.9703147,156.69827 27.8407044,156.685522 27.7047195,156.685522 C27.3477597,156.685522 27.0587922,156.772637 26.8378172,156.946867 C26.6168422,157.121097 26.4468614,157.305951 26.3278747,157.50143 L26.3278747,161.453484 L24.7980471,161.453484 L24.7980471,155.410665 L26.2513833,155.410665 L26.2513833,156.290316 C26.3958669,156.026846 26.6083431,155.788873 26.8888114,155.576397 C27.1692798,155.363921 27.513491,155.257682 27.9214451,155.257682 Z M30.0106159,153.460135 C30.0106159,153.179667 30.1083547,152.941693 30.3038328,152.746216 C30.4993109,152.550738 30.737284,152.452999 31.0177523,152.452999 C31.2982207,152.452999 31.536194,152.550738 31.7316719,152.746216 C31.9271498,152.941693 32.0248888,153.179667 32.0248888,153.460135 C32.0248888,153.740603 31.9271498,153.978577 31.7316719,154.174055 C31.536194,154.369532 31.2982207,154.467272 31.0177523,154.467272 C30.737284,154.467272 30.4993109,154.369532 30.3038328,154.174055 C30.1083547,153.978577 30.0106159,153.740603 30.0106159,153.460135 Z M30.2528386,155.410665 L31.7826661,155.410665 L31.7826661,161.453484 L30.2528386,161.453484 L30.2528386,155.410665 Z M35.5418987,159.337223 C35.6693843,159.558198 35.8521137,159.753676 36.0900869,159.923657 C36.3280602,160.093638 36.6340259,160.178628 37.0079835,160.178628 C37.5094271,160.178628 37.9067572,160.012897 38.1999741,159.681434 C38.4931911,159.349971 38.6397996,158.933518 38.6397996,158.432075 C38.6397996,157.930631 38.4931911,157.514178 38.1999741,157.182716 C37.9067572,156.851253 37.5094271,156.685522 37.0079835,156.685522 C36.6340255,156.685522 36.32806,156.770512 36.0900869,156.940493 C35.8521137,157.110474 35.6693843,157.305952 35.5418987,157.526927 L35.5418987,159.337223 Z M34.0120711,151.81557 L35.5418987,151.81557 L35.5418987,156.048093 C35.6948815,155.852615 35.911607,155.672011 36.1920754,155.506279 C36.4725438,155.340548 36.8295036,155.257682 37.2629548,155.257682 C37.6454116,155.257682 38.01512,155.336298 38.3720798,155.493531 C38.7290395,155.650763 39.0413793,155.869614 39.3090991,156.150082 C39.576819,156.43055 39.7914195,156.764138 39.9529016,157.150844 C40.1143836,157.537551 40.1951243,157.964628 40.1951243,158.432075 C40.1951243,158.891023 40.1143836,159.315975 39.9529016,159.706931 C39.7914195,160.097887 39.5768186,160.433599 39.3090991,160.714068 C39.0413793,160.994536 38.7311642,161.213386 38.378454,161.370619 C38.0257439,161.527851 37.6539109,161.606467 37.2629548,161.606467 C36.8040065,161.606467 36.4215496,161.510853 36.1155841,161.319624 C35.8096185,161.128396 35.5801444,160.909545 35.4271616,160.663073 L35.4271616,161.453484 L34.0120711,161.453484 L34.0120711,151.81557 Z M43.8013741,161.606467 C43.5209057,161.606467 43.2468116,161.555473 42.9790918,161.453484 C42.711372,161.351496 42.4755235,161.202762 42.2715465,161.007284 C42.0675695,160.811807 41.9039628,160.573833 41.7807268,160.293365 C41.6574909,160.012897 41.5958727,159.689933 41.5958727,159.324474 L41.5958727,155.410665 L43.1257003,155.410665 L43.1257003,158.903772 C43.1257003,159.354221 43.2276888,159.679309 43.4316658,159.879037 C43.6356428,160.078764 43.9118617,160.178628 44.2603224,160.178628 C44.5832861,160.178628 44.842507,160.104261 45.0379847,159.955528 C45.2334628,159.806795 45.3949445,159.634689 45.5224301,159.439211 L45.5224301,155.410665 L47.0522577,155.410665 L47.0522577,161.453484 L45.6244186,161.453484 L45.6244186,160.573833 C45.5479273,160.69282 45.4544377,160.813931 45.3439503,160.937167 C45.2334628,161.060404 45.1017276,161.170891 44.9487448,161.26863 C44.795762,161.366369 44.6236564,161.44711 44.432428,161.510853 C44.2411995,161.574596 44.0308482,161.606467 43.8013741,161.606467 Z M48.3765147,155.410665 L49.5621311,155.410665 L49.5621311,153.613118 L51.0919587,153.613118 L51.0919587,155.410665 L52.9150032,155.410665 L52.9150032,156.78751 L51.0919587,156.78751 L51.0919587,159.222486 C51.0919587,159.409465 51.115331,159.564572 51.1620758,159.687808 C51.2088206,159.811044 51.2683139,159.908783 51.3405557,159.981025 C51.4127974,160.053267 51.4956631,160.104261 51.5891527,160.134008 C51.6826423,160.163755 51.7761318,160.178628 51.869621,160.178628 C51.9971067,160.178628 52.1160934,160.15738 52.2265808,160.114885 C52.3370682,160.07239 52.4348071,160.021395 52.5197978,159.961902 L53.0807346,161.211261 C52.9022547,161.330248 52.6855291,161.425862 52.4305578,161.498104 C52.1755866,161.570346 51.9121164,161.606467 51.6401469,161.606467 C51.3426805,161.606467 51.0664616,161.555473 50.8114903,161.453484 C50.556519,161.351496 50.335544,161.207012 50.148565,161.020033 C49.961586,160.833054 49.8171024,160.607829 49.7151139,160.344359 C49.6131254,160.080889 49.5621311,159.787672 49.5621311,159.464708 L49.5621311,156.78751 L48.3765147,156.78751 L48.3765147,155.410665 Z M58.5865203,157.871138 C58.5780214,157.743652 58.5419003,157.607668 58.4781575,157.463184 C58.4144147,157.3187 58.3209251,157.18484 58.1976891,157.061604 C58.0744531,156.938368 57.9193457,156.838504 57.7323666,156.762013 C57.5453878,156.685522 57.3244125,156.647276 57.0694413,156.647276 C56.8229691,156.647276 56.610493,156.685522 56.4320131,156.762013 C56.2535332,156.838504 56.1026753,156.936243 55.9794391,157.05523 C55.8562029,157.174217 55.7627135,157.305952 55.6989707,157.450435 C55.6352279,157.594919 55.599107,157.735153 55.5906079,157.871138 L58.5865203,157.871138 Z M57.0694413,155.257682 C57.4858942,155.257682 57.878975,155.334174 58.2486834,155.487157 C58.6183917,155.640139 58.9413554,155.85474 59.2175742,156.130959 C59.4937929,156.407178 59.7126431,156.73864 59.8741252,157.125347 C60.0356068,157.512054 60.1163479,157.93913 60.1163479,158.406578 L60.1163479,158.6488 C60.1163479,158.750789 60.1120982,158.861276 60.1035993,158.980263 L55.5906079,158.980263 C55.6246042,159.124747 55.6862222,159.26923 55.7754621,159.413714 C55.864702,159.558198 55.9836886,159.687808 56.1324219,159.802545 C56.2811552,159.917282 56.4532608,160.012897 56.6487387,160.089388 C56.8442166,160.165879 57.0651916,160.204125 57.311664,160.204125 C57.5666352,160.204125 57.842854,160.15738 58.1403206,160.063891 C58.4377872,159.970401 58.705507,159.813169 58.9434801,159.592194 L59.7083939,160.739565 C59.4619215,160.943542 59.1304589,161.13902 58.7140059,161.325999 C58.297553,161.512978 57.8216065,161.606467 57.2861668,161.606467 C56.8272186,161.606467 56.4001417,161.525726 56.0049362,161.364244 C55.6097308,161.202762 55.2655196,160.977538 54.9723026,160.68857 C54.6790857,160.399603 54.4496115,160.059641 54.2838802,159.668685 C54.1181489,159.277729 54.0352832,158.857027 54.0352832,158.406578 C54.0352832,157.973126 54.1117746,157.565172 54.2647574,157.182716 C54.4177401,156.800259 54.6280914,156.466671 54.8958112,156.181953 C55.1635311,155.897235 55.48437,155.672011 55.8583278,155.506279 C56.2322856,155.340548 56.6359901,155.257682 57.0694413,155.257682 Z M65.7623678,157.526927 C65.6348822,157.305951 65.4521526,157.110473 65.2141796,156.940493 C64.9762065,156.770512 64.670241,156.685522 64.296283,156.685522 C63.7948396,156.685522 63.3975093,156.851253 63.1042924,157.182716 C62.8110754,157.514178 62.6644669,157.930631 62.6644669,158.432075 C62.6644669,158.933518 62.8110754,159.349971 63.1042924,159.681434 C63.3975093,160.012897 63.7948396,160.178628 64.296283,160.178628 C64.670241,160.178628 64.9762065,160.093638 65.2141796,159.923657 C65.4521526,159.753676 65.6348822,159.558198 65.7623678,159.337223 L65.7623678,157.526927 Z M67.2921954,161.453484 L65.8771049,161.453484 L65.8771049,160.663073 C65.7241221,160.909545 65.494648,161.128396 65.1886825,161.319624 C64.8827169,161.510853 64.50026,161.606467 64.0413118,161.606467 C63.6503558,161.606467 63.2785226,161.527851 62.9258125,161.370619 C62.5731022,161.213386 62.2628872,160.994536 61.9951674,160.714068 C61.7274475,160.433599 61.5128468,160.097887 61.3513649,159.706931 C61.1898831,159.315975 61.1091422,158.891023 61.1091422,158.432075 C61.1091422,157.964628 61.1898831,157.537551 61.3513649,157.150844 C61.5128468,156.764138 61.7274475,156.43055 61.9951674,156.150082 C62.2628872,155.869614 62.575227,155.650763 62.9321868,155.493531 C63.2891465,155.336298 63.6588549,155.257682 64.0413118,155.257682 C64.4747629,155.257682 64.8317227,155.340548 65.1121911,155.506279 C65.3926595,155.672011 65.609385,155.852615 65.7623678,156.048093 L65.7623678,151.81557 L67.2921954,151.81557 L67.2921954,161.453484 Z M75.5245801,157.934881 L78.2017784,157.934881 L76.8631792,154.454523 L75.5245801,157.934881 Z M76.0855169,152.52949 L77.6408416,152.52949 L81.1084508,161.453484 L79.5658746,161.453484 L78.7499666,159.337223 L74.9763919,159.337223 L74.1604838,161.453484 L72.6179077,161.453484 L76.0855169,152.52949 Z M83.7585583,159.337223 C83.886044,159.558198 84.0687733,159.753676 84.3067466,159.923657 C84.5447198,160.093638 84.8506855,160.178628 85.2246431,160.178628 C85.7260867,160.178628 86.1234168,160.012897 86.4166338,159.681434 C86.7098507,159.349971 86.8564592,158.933518 86.8564592,158.432075 C86.8564592,157.930631 86.7098507,157.514178 86.4166338,157.182716 C86.1234168,156.851253 85.7260867,156.685522 85.2246431,156.685522 C84.8506851,156.685522 84.5447196,156.770512 84.3067466,156.940493 C84.0687733,157.110474 83.886044,157.305952 83.7585583,157.526927 L83.7585583,159.337223 Z M83.6438213,155.410665 L83.6438213,156.201076 C83.8138021,155.954604 84.0496505,155.735754 84.3513665,155.544525 C84.6530826,155.353297 85.0334147,155.257682 85.4923629,155.257682 C85.8748198,155.257682 86.2424035,155.336298 86.5951137,155.493531 C86.9478238,155.650763 87.2580389,155.869614 87.5257588,156.150082 C87.7934786,156.43055 88.0080792,156.764138 88.1695612,157.150844 C88.3310433,157.537551 88.4117839,157.964628 88.4117839,158.432075 C88.4117839,158.899522 88.3310433,159.326599 88.1695612,159.713305 C88.0080792,160.100012 87.7934782,160.433599 87.5257588,160.714068 C87.2580389,160.994536 86.9456991,161.213386 86.5887394,161.370619 C86.2317796,161.527851 85.8620713,161.606467 85.4796144,161.606467 C85.233142,161.606467 85.0142918,161.578845 84.8230634,161.523601 C84.6318349,161.468358 84.4661036,161.39824 84.3258694,161.31325 C84.1856352,161.22826 84.0687733,161.143269 83.9752839,161.058279 C83.8817945,160.973288 83.8095526,160.896797 83.7585583,160.828805 L83.7585583,164.385654 L82.2287308,164.385654 L82.2287308,155.410665 L83.6438213,155.410665 Z M91.3423599,159.337223 C91.4698455,159.558198 91.6525749,159.753676 91.8905481,159.923657 C92.1285213,160.093638 92.4344871,160.178628 92.8084447,160.178628 C93.3098883,160.178628 93.7072184,160.012897 94.0004353,159.681434 C94.2936523,159.349971 94.4402607,158.933518 94.4402607,158.432075 C94.4402607,157.930631 94.2936523,157.514178 94.0004353,157.182716 C93.7072184,156.851253 93.3098883,156.685522 92.8084447,156.685522 C92.4344867,156.685522 92.1285212,156.770512 91.8905481,156.940493 C91.6525749,157.110474 91.4698455,157.305952 91.3423599,157.526927 L91.3423599,159.337223 Z M91.2276228,155.410665 L91.2276228,156.201076 C91.3976036,155.954604 91.633452,155.735754 91.9351681,155.544525 C92.2368841,155.353297 92.6172162,155.257682 93.0761645,155.257682 C93.4586214,155.257682 93.8262051,155.336298 94.1789152,155.493531 C94.5316253,155.650763 94.8418405,155.869614 95.1095603,156.150082 C95.3772801,156.43055 95.5918807,156.764138 95.7533628,157.150844 C95.9148448,157.537551 95.9955855,157.964628 95.9955855,158.432075 C95.9955855,158.899522 95.9148448,159.326599 95.7533628,159.713305 C95.5918807,160.100012 95.3772798,160.433599 95.1095603,160.714068 C94.8418405,160.994536 94.5295007,161.213386 94.1725409,161.370619 C93.8155811,161.527851 93.4458728,161.606467 93.0634159,161.606467 C92.8169436,161.606467 92.5980934,161.578845 92.4068649,161.523601 C92.2156365,161.468358 92.0499051,161.39824 91.9096709,161.31325 C91.7694368,161.22826 91.6525749,161.143269 91.5590855,161.058279 C91.4655961,160.973288 91.3933541,160.896797 91.3423599,160.828805 L91.3423599,164.385654 L89.8125323,164.385654 L89.8125323,155.410665 L91.2276228,155.410665 Z M97.5748137,151.81557 L99.1046413,151.81557 L99.1046413,161.453484 L97.5748137,161.453484 L97.5748137,151.81557 Z M101.091824,153.460135 C101.091824,153.179667 101.189562,152.941693 101.385041,152.746216 C101.580519,152.550738 101.818492,152.452999 102.09896,152.452999 C102.379428,152.452999 102.617402,152.550738 102.81288,152.746216 C103.008358,152.941693 103.106097,153.179667 103.106097,153.460135 C103.106097,153.740603 103.008358,153.978577 102.81288,154.174055 C102.617402,154.369532 102.379428,154.467272 102.09896,154.467272 C101.818492,154.467272 101.580519,154.369532 101.385041,154.174055 C101.189562,153.978577 101.091824,153.740603 101.091824,153.460135 Z M101.334046,155.410665 L102.863874,155.410665 L102.863874,161.453484 L101.334046,161.453484 L101.334046,155.410665 Z M107.770477,160.178628 C108.127437,160.178628 108.433402,160.100012 108.688374,159.942779 C108.943345,159.785547 109.130324,159.617691 109.24931,159.439211 L110.256447,160.459096 C110.154458,160.586582 110.022723,160.718317 109.861242,160.854302 C109.69976,160.990286 109.512781,161.113522 109.300305,161.22401 C109.087829,161.334498 108.854105,161.425862 108.599134,161.498104 C108.344162,161.570346 108.063694,161.606467 107.757729,161.606467 C107.307279,161.606467 106.884452,161.523601 106.489247,161.35787 C106.094041,161.192139 105.74983,160.966914 105.456613,160.682196 C105.163396,160.397478 104.931797,160.061766 104.761816,159.67506 C104.591835,159.288353 104.506845,158.874025 104.506845,158.432075 C104.506845,157.990125 104.591835,157.575796 104.761816,157.18909 C104.931797,156.802383 105.163396,156.464546 105.456613,156.175579 C105.74983,155.886612 106.094041,155.661387 106.489247,155.499905 C106.884452,155.338424 107.307279,155.257682 107.757729,155.257682 C108.055195,155.257682 108.331414,155.291679 108.586385,155.359671 C108.841356,155.427663 109.072955,155.516903 109.281182,155.627391 C109.489409,155.737878 109.674263,155.85899 109.835744,155.990725 C109.997226,156.12246 110.128961,156.25207 110.23095,156.379556 L109.172819,157.32295 C109.028335,157.152969 108.832857,157.004236 108.586385,156.87675 C108.339913,156.749264 108.063694,156.685522 107.757729,156.685522 C107.502757,156.685522 107.269034,156.732266 107.056558,156.825756 C106.844081,156.919245 106.665602,157.046731 106.521118,157.208213 C106.376634,157.369694 106.264022,157.554548 106.183281,157.762775 C106.10254,157.971002 106.06217,158.194102 106.06217,158.432075 C106.06217,158.670048 106.10254,158.895273 106.183281,159.107749 C106.264022,159.320225 106.378759,159.505079 106.527492,159.662311 C106.676226,159.819543 106.854705,159.944904 107.062932,160.038394 C107.271158,160.131883 107.507007,160.178628 107.770477,160.178628 Z M114.117668,155.257682 C114.959073,155.257682 115.621999,155.461659 116.106444,155.869614 C116.590889,156.277568 116.833112,156.825756 116.833112,157.514178 L116.833112,161.453484 L115.418022,161.453484 L115.418022,160.68857 C115.222543,160.952041 114.952699,161.170891 114.608488,161.345121 C114.264277,161.519352 113.879695,161.606467 113.454743,161.606467 C113.165775,161.606467 112.887432,161.561847 112.619712,161.472607 C112.351992,161.383367 112.116144,161.251632 111.912167,161.077402 C111.70819,160.903171 111.546708,160.69282 111.427721,160.446348 C111.308735,160.199875 111.249241,159.923657 111.249241,159.617691 C111.249241,159.311726 111.310859,159.033382 111.434095,158.78266 C111.557332,158.531938 111.727312,158.317338 111.944038,158.138858 C112.160764,157.960378 112.415735,157.822268 112.708952,157.724529 C113.002169,157.626791 113.318758,157.577921 113.65872,157.577921 C113.939188,157.577921 114.228155,157.614042 114.525622,157.686284 C114.823089,157.758525 115.08231,157.866888 115.303284,158.011372 L115.303284,157.667161 C115.303284,157.471683 115.260789,157.305951 115.175799,157.169967 C115.090809,157.033982 114.98457,156.92562 114.857085,156.844879 C114.729599,156.764138 114.58724,156.706769 114.430008,156.672773 C114.272775,156.638777 114.121917,156.621779 113.977434,156.621779 C113.773457,156.621779 113.514236,156.655775 113.199772,156.723767 C112.885307,156.79176 112.549595,156.906497 112.192635,157.067978 L111.695441,155.805871 C112.001407,155.661387 112.364741,155.533901 112.785443,155.423414 C113.206146,155.312926 113.650221,155.257682 114.117668,155.257682 Z M113.875445,160.331611 C114.232405,160.331611 114.525622,160.257244 114.755096,160.108511 C114.98457,159.959778 115.1673,159.800421 115.303284,159.63044 L115.303284,159.00576 C115.107806,158.903772 114.886831,158.82728 114.640359,158.776286 C114.393887,158.725292 114.172912,158.699795 113.977434,158.699795 C113.841449,158.699795 113.705464,158.714668 113.56948,158.744415 C113.433495,158.774161 113.308134,158.820906 113.193397,158.884649 C113.07866,158.948392 112.985171,159.035507 112.912929,159.145994 C112.840687,159.256482 112.804566,159.392467 112.804566,159.553948 C112.804566,159.71543 112.838562,159.847165 112.906555,159.949154 C112.974547,160.051142 113.061662,160.129758 113.1679,160.185002 C113.274138,160.240246 113.391,160.278492 113.518486,160.299739 C113.645971,160.320987 113.764958,160.331611 113.875445,160.331611 Z M118.157369,155.410665 L119.342985,155.410665 L119.342985,153.613118 L120.872813,153.613118 L120.872813,155.410665 L122.695858,155.410665 L122.695858,156.78751 L120.872813,156.78751 L120.872813,159.222486 C120.872813,159.409465 120.896185,159.564572 120.94293,159.687808 C120.989675,159.811044 121.049168,159.908783 121.12141,159.981025 C121.193652,160.053267 121.276517,160.104261 121.370007,160.134008 C121.463497,160.163755 121.556986,160.178628 121.650475,160.178628 C121.777961,160.178628 121.896948,160.15738 122.007435,160.114885 C122.117923,160.07239 122.215661,160.021395 122.300652,159.961902 L122.861589,161.211261 C122.683109,161.330248 122.466383,161.425862 122.211412,161.498104 C121.956441,161.570346 121.692971,161.606467 121.421001,161.606467 C121.123535,161.606467 120.847316,161.555473 120.592345,161.453484 C120.337373,161.351496 120.116398,161.207012 119.929419,161.020033 C119.74244,160.833054 119.597957,160.607829 119.495968,160.344359 C119.39398,160.080889 119.342985,159.787672 119.342985,159.464708 L119.342985,156.78751 L118.157369,156.78751 L118.157369,155.410665 Z M124.224092,153.460135 C124.224092,153.179667 124.32183,152.941693 124.517308,152.746216 C124.712787,152.550738 124.95076,152.452999 125.231228,152.452999 C125.511696,152.452999 125.74967,152.550738 125.945148,152.746216 C126.140625,152.941693 126.238365,153.179667 126.238365,153.460135 C126.238365,153.740603 126.140625,153.978577 125.945148,154.174055 C125.74967,154.369532 125.511696,154.467272 125.231228,154.467272 C124.95076,154.467272 124.712787,154.369532 124.517308,154.174055 C124.32183,153.978577 124.224092,153.740603 124.224092,153.460135 Z M124.466314,155.410665 L125.996142,155.410665 L125.996142,161.453484 L124.466314,161.453484 L124.466314,155.410665 Z M130.864499,160.178628 C131.119471,160.178628 131.351069,160.131883 131.559296,160.038394 C131.767523,159.944904 131.943878,159.819543 132.088361,159.662311 C132.232845,159.505079 132.343333,159.320225 132.419824,159.107749 C132.496315,158.895272 132.534561,158.670048 132.534561,158.432075 C132.534561,158.194101 132.496315,157.971001 132.419824,157.762775 C132.343333,157.554548 132.232845,157.369694 132.088361,157.208213 C131.943878,157.046731 131.767522,156.919245 131.559296,156.825756 C131.351069,156.732266 131.119471,156.685522 130.864499,156.685522 C130.609528,156.685522 130.377929,156.732266 130.169703,156.825756 C129.961476,156.919245 129.785121,157.046731 129.640637,157.208213 C129.496154,157.369694 129.385666,157.554548 129.309175,157.762775 C129.232683,157.971002 129.194438,158.194102 129.194438,158.432075 C129.194438,158.670048 129.232683,158.895273 129.309175,159.107749 C129.385666,159.320225 129.496154,159.505079 129.640637,159.662311 C129.785121,159.819543 129.961476,159.944904 130.169703,160.038394 C130.377929,160.131883 130.609528,160.178628 130.864499,160.178628 Z M130.864499,155.257682 C131.314949,155.257682 131.735651,155.338424 132.126607,155.499905 C132.517563,155.661387 132.85965,155.886611 133.152866,156.175579 C133.446083,156.464546 133.675558,156.802383 133.841289,157.18909 C134.00702,157.575796 134.089886,157.990125 134.089886,158.432075 C134.089886,158.874025 134.00702,159.288353 133.841289,159.67506 C133.675558,160.061766 133.446083,160.397478 133.152866,160.682196 C132.85965,160.966914 132.517563,161.192139 132.126607,161.35787 C131.735651,161.523601 131.314949,161.606467 130.864499,161.606467 C130.41405,161.606467 129.993348,161.523601 129.602392,161.35787 C129.211436,161.192139 128.869349,160.966914 128.576132,160.682196 C128.282915,160.397478 128.053441,160.061766 127.88771,159.67506 C127.721979,159.288353 127.639113,158.874025 127.639113,158.432075 C127.639113,157.990125 127.721979,157.575796 127.88771,157.18909 C128.053441,156.802383 128.282915,156.464546 128.576132,156.175579 C128.869349,155.886612 129.211436,155.661387 129.602392,155.499905 C129.993348,155.338424 130.41405,155.257682 130.864499,155.257682 Z M138.741518,155.257682 C139.030485,155.257682 139.308829,155.308677 139.576549,155.410665 C139.844269,155.512654 140.080117,155.661387 140.284094,155.856865 C140.488071,156.052343 140.649553,156.290316 140.768539,156.570784 C140.887526,156.851253 140.947019,157.174217 140.947019,157.539675 L140.947019,161.453484 L139.417192,161.453484 L139.417192,157.922132 C139.417192,157.488681 139.30033,157.174217 139.066606,156.978739 C138.832882,156.78326 138.563038,156.685522 138.257072,156.685522 C137.934109,156.685522 137.674888,156.770512 137.47941,156.940493 C137.283932,157.110474 137.130949,157.284704 137.020462,157.463184 L137.020462,161.453484 L135.490634,161.453484 L135.490634,155.410665 L136.918473,155.410665 L136.918473,156.290316 C136.986466,156.179829 137.073581,156.062967 137.179819,155.939731 C137.286057,155.816495 137.415667,155.703882 137.56865,155.601894 C137.721633,155.499905 137.893738,155.41704 138.084967,155.353297 C138.276195,155.289554 138.495046,155.257682 138.741518,155.257682 Z M149.702095,156.634527 C150.195039,156.634527 150.583871,156.52404 150.868589,156.303065 C151.153307,156.082089 151.295666,155.750627 151.295666,155.308677 C151.295666,154.866726 151.153307,154.535264 150.868589,154.314289 C150.583871,154.093314 150.195039,153.982826 149.702095,153.982826 L148.490982,153.982826 L148.490982,156.634527 L149.702095,156.634527 Z M146.961154,152.52949 L149.893324,152.52949 C150.335274,152.52949 150.738978,152.597482 151.104437,152.733467 C151.469896,152.869452 151.782236,153.06068 152.041456,153.307152 C152.300677,153.553624 152.500405,153.848966 152.640639,154.193177 C152.780873,154.537389 152.85099,154.917721 152.85099,155.334174 C152.85099,155.9886 152.678885,156.553787 152.334673,157.029733 C151.990462,157.505679 151.499643,157.824393 150.862214,157.985875 L153.093213,161.453484 L151.308414,161.453484 L149.192153,158.087864 L148.490982,158.087864 L148.490982,161.453484 L146.961154,161.453484 L146.961154,152.52949 Z M156.699463,161.606467 C156.418994,161.606467 156.1449,161.555473 155.87718,161.453484 C155.609461,161.351496 155.373612,161.202762 155.169635,161.007284 C154.965658,160.811807 154.802051,160.573833 154.678815,160.293365 C154.555579,160.012897 154.493961,159.689933 154.493961,159.324474 L154.493961,155.410665 L156.023789,155.410665 L156.023789,158.903772 C156.023789,159.354221 156.125777,159.679309 156.329754,159.879037 C156.533731,160.078764 156.80995,160.178628 157.158411,160.178628 C157.481375,160.178628 157.740596,160.104261 157.936073,159.955528 C158.131551,159.806795 158.293033,159.634689 158.420519,159.439211 L158.420519,155.410665 L159.950346,155.410665 L159.950346,161.453484 L158.522507,161.453484 L158.522507,160.573833 C158.446016,160.69282 158.352526,160.813931 158.242039,160.937167 C158.131551,161.060404 157.999816,161.170891 157.846833,161.26863 C157.693851,161.366369 157.521745,161.44711 157.330517,161.510853 C157.139288,161.574596 156.928937,161.606467 156.699463,161.606467 Z M165.009932,155.257682 C165.2989,155.257682 165.577243,155.308677 165.844963,155.410665 C166.112683,155.512654 166.348532,155.661387 166.552509,155.856865 C166.756486,156.052343 166.917967,156.290316 167.036954,156.570784 C167.155941,156.851253 167.215434,157.174217 167.215434,157.539675 L167.215434,161.453484 L165.685606,161.453484 L165.685606,157.922132 C165.685606,157.488681 165.568745,157.174217 165.335021,156.978739 C165.101297,156.78326 164.831453,156.685522 164.525487,156.685522 C164.202523,156.685522 163.943303,156.770512 163.747825,156.940493 C163.552347,157.110474 163.399364,157.284704 163.288876,157.463184 L163.288876,161.453484 L161.759049,161.453484 L161.759049,155.410665 L163.186888,155.410665 L163.186888,156.290316 C163.25488,156.179829 163.341995,156.062967 163.448233,155.939731 C163.554471,155.816495 163.684082,155.703882 163.837065,155.601894 C163.990047,155.499905 164.162153,155.41704 164.353381,155.353297 C164.54461,155.289554 164.76346,155.257682 165.009932,155.257682 Z M168.539691,155.410665 L169.725307,155.410665 L169.725307,153.613118 L171.255135,153.613118 L171.255135,155.410665 L173.078179,155.410665 L173.078179,156.78751 L171.255135,156.78751 L171.255135,159.222486 C171.255135,159.409465 171.278507,159.564572 171.325252,159.687808 C171.371997,159.811044 171.43149,159.908783 171.503732,159.981025 C171.575973,160.053267 171.658839,160.104261 171.752329,160.134008 C171.845818,160.163755 171.939308,160.178628 172.032797,160.178628 C172.160283,160.178628 172.279269,160.15738 172.389757,160.114885 C172.500244,160.07239 172.597983,160.021395 172.682974,159.961902 L173.243911,161.211261 C173.065431,161.330248 172.848705,161.425862 172.593734,161.498104 C172.338763,161.570346 172.075292,161.606467 171.803323,161.606467 C171.505857,161.606467 171.229638,161.555473 170.974666,161.453484 C170.719695,161.351496 170.49872,161.207012 170.311741,161.020033 C170.124762,160.833054 169.980278,160.607829 169.87829,160.344359 C169.776301,160.080889 169.725307,159.787672 169.725307,159.464708 L169.725307,156.78751 L168.539691,156.78751 L168.539691,155.410665 Z M174.606413,153.460135 C174.606413,153.179667 174.704152,152.941693 174.89963,152.746216 C175.095108,152.550738 175.333081,152.452999 175.61355,152.452999 C175.894018,152.452999 176.131991,152.550738 176.327469,152.746216 C176.522947,152.941693 176.620686,153.179667 176.620686,153.460135 C176.620686,153.740603 176.522947,153.978577 176.327469,154.174055 C176.131991,154.369532 175.894018,154.467272 175.61355,154.467272 C175.333081,154.467272 175.095108,154.369532 174.89963,154.174055 C174.704152,153.978577 174.606413,153.740603 174.606413,153.460135 Z M174.848636,155.410665 L176.378464,155.410665 L176.378464,161.453484 L174.848636,161.453484 L174.848636,155.410665 Z M185.42835,155.257682 C185.734315,155.257682 186.019033,155.310801 186.282504,155.41704 C186.545974,155.523278 186.771199,155.674136 186.958178,155.869614 C187.145157,156.065092 187.291765,156.30519 187.398003,156.589907 C187.504241,156.874625 187.55736,157.199714 187.55736,157.565172 L187.55736,161.453484 L186.027532,161.453484 L186.027532,157.960378 C186.027532,157.110474 185.683321,156.685522 184.994899,156.685522 C184.654937,156.685522 184.389342,156.770512 184.198114,156.940493 C184.006885,157.110474 183.860277,157.284704 183.758288,157.463184 L183.758288,161.453484 L182.228461,161.453484 L182.228461,157.960378 C182.228461,157.110474 181.884249,156.685522 181.195827,156.685522 C180.855865,156.685522 180.59027,156.770512 180.399042,156.940493 C180.207813,157.110474 180.061205,157.284704 179.959216,157.463184 L179.959216,161.453484 L178.429389,161.453484 L178.429389,155.410665 L179.857228,155.410665 L179.857228,156.290316 C180.010211,156.035345 180.235435,155.799496 180.532902,155.582771 C180.830368,155.366045 181.212825,155.257682 181.680272,155.257682 C182.079727,155.257682 182.445186,155.349047 182.776649,155.531777 C183.108111,155.714506 183.354584,155.975852 183.516065,156.315813 C183.584058,156.188328 183.675422,156.060842 183.79016,155.933356 C183.904897,155.805871 184.043006,155.693258 184.204488,155.595519 C184.36597,155.497781 184.548699,155.41704 184.752676,155.353297 C184.956653,155.289554 185.181878,155.257682 185.42835,155.257682 Z M193.509345,157.871138 C193.500847,157.743652 193.464725,157.607668 193.400983,157.463184 C193.33724,157.3187 193.24375,157.18484 193.120514,157.061604 C192.997278,156.938368 192.842171,156.838504 192.655192,156.762013 C192.468213,156.685522 192.247238,156.647276 191.992266,156.647276 C191.745794,156.647276 191.533318,156.685522 191.354838,156.762013 C191.176358,156.838504 191.0255,156.936243 190.902264,157.05523 C190.779028,157.174217 190.685539,157.305952 190.621796,157.450435 C190.558053,157.594919 190.521932,157.735153 190.513433,157.871138 L193.509345,157.871138 Z M191.992266,155.257682 C192.408719,155.257682 192.8018,155.334174 193.171509,155.487157 C193.541217,155.640139 193.864181,155.85474 194.140399,156.130959 C194.416618,156.407178 194.635468,156.73864 194.79695,157.125347 C194.958432,157.512054 195.039173,157.93913 195.039173,158.406578 L195.039173,158.6488 C195.039173,158.750789 195.034923,158.861276 195.026424,158.980263 L190.513433,158.980263 C190.547429,159.124747 190.609047,159.26923 190.698287,159.413714 C190.787527,159.558198 190.906514,159.687808 191.055247,159.802545 C191.20398,159.917282 191.376086,160.012897 191.571564,160.089388 C191.767042,160.165879 191.988017,160.204125 192.234489,160.204125 C192.48946,160.204125 192.765679,160.15738 193.063146,160.063891 C193.360612,159.970401 193.628332,159.813169 193.866305,159.592194 L194.631219,160.739565 C194.384747,160.943542 194.053284,161.13902 193.636831,161.325999 C193.220378,161.512978 192.744432,161.606467 192.208992,161.606467 C191.750044,161.606467 191.322967,161.525726 190.927761,161.364244 C190.532556,161.202762 190.188345,160.977538 189.895128,160.68857 C189.601911,160.399603 189.372437,160.059641 189.206705,159.668685 C189.040974,159.277729 188.958108,158.857027 188.958108,158.406578 C188.958108,157.973126 189.0346,157.565172 189.187583,157.182716 C189.340565,156.800259 189.550917,156.466671 189.818636,156.181953 C190.086356,155.897235 190.407195,155.672011 190.781153,155.506279 C191.155111,155.340548 191.558815,155.257682 191.992266,155.257682 Z" id="Distributed-Applicat"></path>
                        </g>
                    </g>
                </g>
            </g>
        </g>
    </g>
</svg>